<svg xmlns="http://www.w3.org/2000/svg" width="71" height="71" fill="none" viewBox="0 0 71 71">
    <path fill="#1B3F70" d="M7.306 50.306c-.002-.121.043-.24.127-.328.044-.045.098-.08.157-.104.06-.023.123-.033.187-.03.062-.004.125.006.184.028.058.022.112.056.157.1.044.044.08.097.102.156.024.058.034.12.032.183.001.06-.01.12-.032.175-.022.056-.055.107-.098.15-.045.043-.1.078-.159.1-.06.023-.123.033-.186.03-.064.003-.127-.007-.186-.03-.06-.022-.113-.056-.158-.1-.043-.044-.075-.096-.097-.152-.022-.057-.032-.117-.03-.178zm.809 7.986h-.689v-6.195h.689v6.195zM12.484 58.292v-8.339h2.464c.893 0 1.572.185 2.035.554.463.37.694.913.693 1.63.009.405-.115.801-.352 1.128-.242.324-.58.564-.966.685.461.095.875.346 1.17.712.295.367.454.824.448 1.294 0 .738-.237 1.314-.713 1.727-.475.413-1.137.62-1.985.623l-2.794-.014zm.706-4.602h1.924c.589-.01 1.043-.155 1.367-.415.324-.26.485-.654.485-1.162 0-.537-.169-.934-.502-1.187-.333-.252-.839-.381-1.516-.381H13.19v3.145zm0 .597v3.41h2.113c.604 0 1.082-.156 1.435-.467.178-.16.318-.357.41-.577.092-.22.133-.459.121-.697.01-.229-.03-.457-.117-.668-.088-.211-.221-.4-.39-.554-.339-.3-.806-.449-1.402-.449l-2.17.002zM33.407 58.292h-.71v-3.994h-4.769v3.994h-.705v-8.339h.705v3.748h4.768v-3.748h.71v8.339zM43.621 49.953v5.692c.008.513-.12 1.02-.373 1.466-.243.416-.602.75-1.034.961-.478.23-1.003.345-1.532.335-.879 0-1.583-.24-2.112-.72-.53-.479-.802-1.141-.818-1.986v-5.748h.7v5.645c0 .702.2 1.247.6 1.636.401.39.946.583 1.634.581.687 0 1.23-.194 1.63-.584.4-.389.6-.931.598-1.627v-5.65h.707zM47.933 58.292v-8.339h2.464c.896 0 1.574.185 2.035.554.461.37.692.913.693 1.63.01.405-.114.801-.352 1.128-.242.324-.58.564-.965.685.46.095.872.347 1.167.713.295.366.453.823.447 1.293 0 .738-.237 1.314-.713 1.727-.475.413-1.137.62-1.985.623l-2.79-.014zm.706-4.602h1.924c.589-.01 1.044-.155 1.368-.415.324-.26.484-.654.484-1.162 0-.537-.168-.934-.502-1.187-.333-.252-.839-.381-1.516-.381h-1.758v3.145zm0 .597v3.41h2.114c.604 0 1.082-.156 1.435-.467.178-.16.318-.358.41-.58.092-.22.133-.46.12-.699.01-.228-.03-.456-.117-.668-.088-.21-.22-.4-.39-.554-.337-.299-.805-.448-1.401-.448l-2.171.006zM62.2 56.246c.01-.209-.03-.416-.114-.607-.085-.19-.213-.358-.373-.491-.324-.27-.918-.526-1.782-.768-.863-.242-1.494-.507-1.892-.794-.256-.173-.466-.405-.614-.676-.147-.271-.227-.574-.233-.883-.006-.309.063-.614.2-.891s.339-.516.588-.699c.526-.398 1.197-.598 2.014-.598.513-.008 1.022.102 1.487.321.417.196.77.506 1.017.894.241.382.367.826.36 1.278h-.71c.011-.258-.036-.516-.137-.754s-.254-.45-.448-.622c-.389-.347-.912-.52-1.57-.52-.638 0-1.146.142-1.524.426-.178.126-.324.293-.422.488-.1.195-.149.41-.145.629-.004.201.04.4.13.581.088.18.218.338.38.458.34.267.885.504 1.633.708.59.145 1.162.358 1.702.637.35.187.65.458.87.788.203.327.305.706.293 1.09.008.308-.06.613-.197.888-.137.276-.34.514-.59.693-.526.396-1.218.595-2.078.596-.555.008-1.105-.098-1.618-.312-.451-.176-.84-.483-1.118-.88-.256-.386-.39-.84-.381-1.303h.705c-.01.268.044.535.159.778.114.242.286.454.5.616.439.34 1.023.51 1.753.51.649 0 1.17-.144 1.565-.43.187-.127.34-.3.442-.5.104-.201.154-.425.148-.651z"/>
    <path fill="#036DB0" d="M18.19 25.142L5.812 43.517c-.172.255-.271.552-.287.86-.017.306.05.612.195.883.143.272.358.5.621.659.263.16.565.244.872.245h24.76c.307 0 .61-.083.874-.242.264-.159.48-.386.624-.658.145-.272.213-.578.198-.886-.016-.308-.116-.605-.287-.86L21.008 25.141c-.155-.23-.365-.42-.61-.55-.247-.131-.52-.2-.8-.2-.277 0-.552.069-.797.2-.246.13-.456.32-.611.55z"/>
    <path fill="#4CC7F4" d="M40.488 12.666L19.761 43.187c-.194.286-.307.619-.326.964-.02.344.056.688.218.993.161.305.403.56.699.739.296.178.634.272.98.272h41.457c.345 0 .684-.094.98-.272.296-.178.537-.434.699-.739.161-.305.237-.649.218-.993-.02-.345-.132-.678-.326-.964l-20.728-30.52c-.174-.257-.408-.467-.682-.613-.274-.145-.58-.22-.89-.22-.31 0-.615.075-.89.22-.273.146-.508.356-.682.612z"/>
</svg>
